<?xml version="1.0" encoding="UTF-8" standalone="no"?>
<svg
   xmlns:dc="http://purl.org/dc/elements/1.1/"
   xmlns:cc="http://creativecommons.org/ns#"
   xmlns:rdf="http://www.w3.org/1999/02/22-rdf-syntax-ns#"
   xmlns:svg="http://www.w3.org/2000/svg"
   xmlns="http://www.w3.org/2000/svg"
   xmlns:sodipodi="http://sodipodi.sourceforge.net/DTD/sodipodi-0.dtd"
   xmlns:inkscape="http://www.inkscape.org/namespaces/inkscape"
   width="489.19727"
   height="149.33197"
   viewBox="0 0 129.43344 39.510757"
   version="1.1"
   id="svg185"
   inkscape:version="1.0.2 (e86c870879, 2021-01-15)"
   sodipodi:docname="consistem4.svg">
  <defs
     id="defs179">
    <filter
       style="color-interpolation-filters:sRGB"
       inkscape:label="Clean Edges"
       id="filter2843">
      <feGaussianBlur
         stdDeviation="0.127217"
         result="blur"
         id="feGaussianBlur2837" />
      <feComposite
         in="SourceGraphic"
         in2="blur"
         operator="in"
         result="composite1"
         id="feComposite2839" />
      <feComposite
         in="composite1"
         in2="composite1"
         operator="in"
         result="fbSourceGraphic"
         id="feComposite2841" />
      <feColorMatrix
         result="fbSourceGraphicAlpha"
         in="fbSourceGraphic"
         values="0 0 0 -1 0 0 0 0 -1 0 0 0 0 -1 0 0 0 0 1 0"
         id="feColorMatrix2845" />
      <feGaussianBlur
         id="feGaussianBlur2847"
         stdDeviation="0.127217"
         result="blur"
         in="fbSourceGraphic" />
      <feComposite
         in2="blur"
         id="feComposite2849"
         in="fbSourceGraphic"
         operator="in"
         result="composite1" />
      <feComposite
         in2="composite1"
         id="feComposite2851"
         in="composite1"
         operator="in"
         result="composite2" />
    </filter>
  </defs>
  <sodipodi:namedview
     id="base"
     pagecolor="#ffffff"
     bordercolor="#666666"
     borderopacity="1.0"
     inkscape:pageopacity="0.0"
     inkscape:pageshadow="2"
     inkscape:zoom="2.08"
     inkscape:cx="333.71949"
     inkscape:cy="32.442508"
     inkscape:document-units="mm"
     inkscape:current-layer="layer1"
     inkscape:document-rotation="0"
     showgrid="true"
     units="px"
     objecttolerance="10000"
     inkscape:window-width="1920"
     inkscape:window-height="997"
     inkscape:window-x="0"
     inkscape:window-y="0"
     inkscape:window-maximized="1"
     showguides="true"
     inkscape:snap-text-baseline="false">
    <inkscape:grid
       type="xygrid"
       id="grid187"
       spacingx="2.6458334"
       spacingy="2.6458334"
       dotted="false"
       originx="-13.229166"
       originy="-3.1186237" />
  </sodipodi:namedview>
  <metadata
     id="metadata182">
    <rdf:RDF>
      <cc:Work
         rdf:about="">
        <dc:format>image/svg+xml</dc:format>
        <dc:type
           rdf:resource="http://purl.org/dc/dcmitype/StillImage" />
        <dc:title />
      </cc:Work>
    </rdf:RDF>
  </metadata>
  <g
     inkscape:label="Layer 1"
     inkscape:groupmode="layer"
     id="layer1"
     transform="translate(-13.229168,-3.1186156)">
    <g
       id="g2971"
       transform="matrix(0.74457338,0,0,0.74457338,-4.1152385,3.5270426)"
       style="fill:#1d3156;fill-opacity:1">
      <g
         id="g2965"
         style="fill:#1d3156;fill-opacity:1">
        <g
           id="g313"
           transform="matrix(0.63157897,0,0,0.63157897,23.294422,0.83552637)"
           style="fill:#1d3156;fill-opacity:1">
          <path
             id="rect255"
             style="fill:#1d3156;fill-opacity:1;stroke-width:0.836659"
             d="M 0,0 V 140 H 180 V 100 H 40 V 40 h 180 10 V 0 h -10 z"
             transform="scale(0.26458333)" />
          <path
             id="rect255-2"
             style="fill:#1d3156;fill-opacity:1;stroke-width:0.836659"
             d="m 50,50 v 40 h 140 v 60 H 10 0 v 40 H 10 230 V 50 Z"
             transform="scale(0.26458333)" />
        </g>
      </g>
    </g>
    <path
       id="text317"
       style="font-style:normal;font-variant:normal;font-weight:bold;font-stretch:normal;font-size:22.5778px;line-height:1.25;font-family:'Alegreya Sans SC';-inkscape-font-specification:'Alegreya Sans SC, Bold';font-variant-ligatures:normal;font-variant-caps:normal;font-variant-numeric:normal;font-variant-east-asian:normal;fill:#1d3156;fill-opacity:1;stroke:none;stroke-width:0.264583"
       d="m 51.584448,3.1186156 c -2.212623,0 -3.928803,0.6623945 -5.148005,1.9869587 -1.204148,1.3245644 -1.806091,3.1908428 -1.806091,5.5991417 0,2.363143 0.564547,4.177171 1.693436,5.441528 1.143942,1.264357 2.79967,1.896525 4.96714,1.896525 1.264356,0 2.468239,-0.263834 3.612181,-0.790649 l 0.248566,-2.596224 -0.271301,-0.15813 c -0.481661,0.301037 -1.023152,0.541814 -1.625225,0.722436 -0.587023,0.165571 -1.159256,0.248564 -1.716174,0.248564 -1.204151,0 -2.122176,-0.421618 -2.754355,-1.264522 -0.617125,-0.857957 -0.925523,-2.137148 -0.925523,-3.838009 0,-3.1458402 1.196197,-4.7190915 3.589443,-4.7190915 0.571971,0 1.12935,0.090679 1.671217,0.2713011 0.541866,0.1806225 1.038275,0.4285681 1.489831,0.7446573 L 54.858151,6.5504474 55.399722,3.999182 C 54.270829,3.4121591 52.999324,3.1186156 51.584448,3.1186156 Z m 10.633978,3.1383096 c -1.85138,0 -3.281186,0.5266346 -4.289661,1.5802652 -1.008475,1.0536309 -1.513086,2.5438896 -1.513086,4.4705286 0,1.821275 0.466699,3.236227 1.399913,4.244702 0.933217,0.993423 2.250321,1.490348 3.951182,1.490348 1.851379,0 3.281185,-0.53432 4.28966,-1.603003 1.023528,-1.083734 1.535306,-2.604219 1.535306,-4.560962 0,-1.791172 -0.466699,-3.1758966 -1.399913,-4.1542681 C 65.25861,6.7461647 63.934338,6.2569252 62.218426,6.2569252 Z m 25.309565,0.022738 c -0.918163,0 -1.723486,0.1577835 -2.415874,0.4738727 -0.677333,0.316089 -1.203968,0.7525616 -1.580263,1.3094806 -0.361247,0.5569191 -0.542087,1.1742325 -0.542087,1.8515666 0,0.6472299 0.150614,1.1892369 0.451652,1.6257409 0.31609,0.436504 0.68494,0.782297 1.106392,1.038179 0.436505,0.24083 0.993365,0.504664 1.670699,0.79065 0.647231,0.255881 1.1211,0.488972 1.422135,0.699698 0.31609,0.195675 0.47439,0.458992 0.47439,0.790133 0,0.316089 -0.135242,0.579407 -0.406175,0.790133 -0.255884,0.210726 -0.595024,0.31626 -1.016476,0.31626 -0.481661,-1e-6 -1.030836,-0.135244 -1.647963,-0.406177 -0.617125,-0.270934 -1.173985,-0.632616 -1.670698,-1.084172 l -0.293521,0.203605 -0.383958,2.66392 c 0.602075,0.24083 1.21939,0.413986 1.851567,0.519348 0.647232,0.120415 1.241486,0.180868 1.783355,0.180868 1.008476,0 1.851711,-0.173155 2.529044,-0.519348 0.692386,-0.346193 1.204166,-0.798037 1.535306,-1.354956 0.346194,-0.571971 0.519348,-1.181599 0.519348,-1.828829 0,-0.64723 -0.158301,-1.181551 -0.474388,-1.603003 -0.301037,-0.436504 -0.66989,-0.775129 -1.106395,-1.015959 -0.421452,-0.240829 -0.970626,-0.504147 -1.647959,-0.790132 -0.647232,-0.270934 -1.121614,-0.504025 -1.422652,-0.699699 -0.301037,-0.210726 -0.451654,-0.4745604 -0.451654,-0.7906496 0,-0.2859855 0.120906,-0.5267621 0.361736,-0.7224366 0.240831,-0.210726 0.571769,-0.3157429 0.993222,-0.3157429 0.376295,0 0.790228,0.090162 1.241784,0.2707847 0.451557,0.1806223 0.918255,0.4516252 1.399913,0.8128701 L 90.214649,9.3724974 90.643563,6.8439695 C 89.650139,6.4676727 88.611727,6.279663 87.527991,6.2796632 Z m 16.346289,0 c -0.91816,0 -1.72348,0.1577835 -2.41587,0.4738727 -0.67733,0.3160892 -1.20397,0.7525618 -1.580267,1.3094808 -0.361247,0.5569191 -0.542087,1.1742325 -0.542087,1.8515666 0,0.6472297 0.150614,1.1892367 0.451652,1.6257407 0.316092,0.436504 0.684942,0.782297 1.106392,1.038179 0.43651,0.24083 0.99337,0.504664 1.6707,0.79065 0.64723,0.255881 1.1211,0.488972 1.42214,0.699698 0.31609,0.195675 0.47439,0.458992 0.47439,0.790133 0,0.316089 -0.13525,0.579407 -0.40618,0.790133 -0.25588,0.210726 -0.59502,0.31626 -1.01647,0.31626 -0.48167,-1e-6 -1.03084,-0.135244 -1.64797,-0.406177 -0.61712,-0.270934 -1.17399,-0.632616 -1.670698,-1.084172 l -0.293521,0.203605 -0.383958,2.66392 c 0.602075,0.24083 1.219387,0.413986 1.851567,0.519348 0.64723,0.120415 1.24149,0.180868 1.78336,0.180868 1.00847,0 1.85171,-0.173155 2.52904,-0.519348 0.69239,-0.346193 1.20417,-0.798037 1.53531,-1.354956 0.34619,-0.571971 0.51935,-1.181599 0.51935,-1.828829 0,-0.64723 -0.1583,-1.181551 -0.47439,-1.603003 -0.30104,-0.436504 -0.66989,-0.775129 -1.10639,-1.015959 -0.42146,-0.240829 -0.97063,-0.504147 -1.64797,-0.790132 -0.64723,-0.270934 -1.12161,-0.504025 -1.42265,-0.699699 -0.30104,-0.210726 -0.45113,-0.4745602 -0.45113,-0.7906494 0,-0.2859855 0.12038,-0.5267621 0.36121,-0.7224366 0.24084,-0.210726 0.57177,-0.3157429 0.99323,-0.3157429 0.37629,0 0.79022,0.090162 1.24178,0.2707847 0.45156,0.1806223 0.91826,0.4516252 1.39991,0.8128701 l 0.40618,-0.1131713 0.42891,-2.5285279 c -0.99342,-0.376297 -2.03183,-0.5643067 -3.11557,-0.5643065 z m -23.661603,0.089917 -2.618962,0.1808676 0.09043,6.9540972 H 77.48106 L 72.920099,6.4377928 h -3.070614 l 0.11317,8.0599732 -0.11317,3.341398 h 2.574002 l -0.09043,-3.996139 0.02273,-3.070613 h 0.158131 l 4.560446,7.066752 h 3.093349 l -0.11317,-3.612183 z m 13.321149,0.068213 0.112654,8.0150138 -0.112654,3.386357 h 2.844787 l -0.113171,-3.657658 0.158131,-7.7437128 z m 15.081764,0 -0.15812,2.1673095 0.18086,0.2258261 2.34818,-0.1581298 h 0.65474 l 0.045,5.780008 -0.11266,3.386357 h 2.82206 l -0.0904,-3.657658 0.0677,-5.508707 h 0.65474 l 2.30322,0.1581298 0.15761,-2.1678265 -0.15761,-0.2253091 z m 10.95024,0 0.11266,8.0150138 -0.11266,3.386357 h 7.81193 l 0.20309,-2.122351 -0.18035,-0.180351 -3.07062,0.09043 h -1.98696 l -0.0455,-1.44539 0.0227,-0.993221 h 1.8743 l 2.14457,0.0677 0.18087,-2.144572 -0.15813,-0.203605 -1.96422,0.0677 -2.03192,-0.02222 0.045,-2.3032178 h 2.12235 l 2.93522,0.1131713 0.18035,-2.1001302 -0.15813,-0.2253091 z m 10.85981,0 -1.21905,11.4013708 h 2.41587 l 0.24805,-3.725354 0.40669,-3.454053 h 0.18035 l 2.23552,6.050794 h 2.19005 l 2.50579,-6.050794 h 0.18087 l 0.38395,3.725354 0.15762,3.454053 h 2.55126 L 141.6017,6.4377928 h -3.27371 l -0.49661,1.6929198 -1.78387,4.8090084 h -0.18035 l -1.64848,-4.8312292 -0.45165,-1.670699 z M 61.969863,8.559627 c 0.662281,0 1.181748,0.1209051 1.558044,0.3617352 0.376295,0.2408298 0.654468,0.6470761 0.835091,1.2190468 0.180623,0.556919 0.271301,1.332016 0.271301,2.32544 0,1.249305 -0.203383,2.122249 -0.609783,2.618961 -0.391348,0.496712 -1.06091,0.745174 -2.009179,0.745174 -0.647229,0 -1.166696,-0.120388 -1.558044,-0.361218 -0.376296,-0.24083 -0.654987,-0.639907 -0.835607,-1.196826 -0.165571,-0.571971 -0.248047,-1.354754 -0.248047,-2.348177 0,-1.234253 0.195694,-2.0995126 0.587044,-2.5962241 0.4064,-0.5117635 1.075963,-0.7679119 2.00918,-0.7679119 z" />
    <path
       id="text321"
       style="font-style:normal;font-variant:normal;font-weight:bold;font-stretch:normal;font-size:12.7px;line-height:1.25;font-family:'Alegreya Sans SC';-inkscape-font-specification:'Alegreya Sans SC, Bold';font-variant-ligatures:normal;font-variant-caps:normal;font-variant-numeric:normal;font-variant-east-asian:normal;fill:#1d3156;fill-opacity:1;stroke:none;stroke-width:0.264583"
       d="m 135.17986,19.786849 -2.61638,9.956499 0.10181,0.140041 h 1.16788 l 2.6293,-9.944095 -0.14004,-0.152445 z m -84.797922,0.355533 c -1.2446,0 -2.209631,0.372695 -2.895431,1.117762 -0.677333,0.745066 -1.015957,1.794495 -1.015957,3.149161 0,1.329267 0.317397,2.349595 0.952397,3.060795 0.643466,0.7112 1.574945,1.067119 2.794145,1.067119 0.711197,0 1.388449,-0.148601 2.031915,-0.444934 l 0.139528,-1.460376 -0.152447,-0.08888 c -0.270934,0.169334 -0.575488,0.305094 -0.914154,0.406694 -0.3302,0.09313 -0.65205,0.139526 -0.965317,0.139526 -0.677333,0 -1.193659,-0.236934 -1.549259,-0.711068 -0.347134,-0.4826 -0.520899,-1.202308 -0.520899,-2.159041 0,-1.769533 0.673315,-2.654618 2.019515,-2.654618 0.321733,0 0.634677,0.05084 0.939477,0.152445 0.3048,0.1016 0.584192,0.241296 0.838192,0.419096 l 0.140044,-0.06356 0.304374,-1.435054 c -0.635,-0.3302 -1.350256,-0.495061 -2.146123,-0.495061 z m 79.489202,0 c -0.5842,0 -1.10497,0.11008 -1.56217,0.330213 -0.4572,0.220133 -0.81261,0.524689 -1.06661,0.914156 -0.254,0.381 -0.38137,0.808476 -0.38137,1.282609 0,0.423333 0.10169,0.783187 0.30489,1.079521 0.2032,0.296333 0.44904,0.533784 0.73691,0.711584 0.28786,0.1778 0.66004,0.368341 1.11724,0.571541 0.49954,0.237067 0.85939,0.439932 1.07952,0.609266 0.2286,0.169333 0.34313,0.389491 0.34313,0.660424 0,0.254 -0.10614,0.474159 -0.31781,0.660425 -0.2032,0.1778 -0.49098,0.266651 -0.86351,0.266651 -0.31326,0 -0.67312,-0.07601 -1.07952,-0.22841 -0.39793,-0.160867 -0.76617,-0.389413 -1.10484,-0.685747 l -0.19069,0.101286 -0.24133,1.600419 c 0.8128,0.347134 1.62188,0.520899 2.42621,0.520899 0.6096,0 1.14716,-0.110079 1.61282,-0.330213 0.46567,-0.2286 0.82552,-0.533673 1.07952,-0.914673 0.254,-0.389466 0.38086,-0.816942 0.38086,-1.282609 0,-0.4318 -0.10563,-0.796106 -0.31729,-1.092439 -0.2032,-0.296334 -0.45298,-0.533268 -0.74931,-0.711068 -0.28787,-0.186267 -0.66502,-0.385196 -1.13068,-0.596863 -0.4826,-0.2286 -0.83801,-0.427529 -1.06661,-0.596863 -0.22013,-0.169333 -0.33021,-0.37665 -0.33021,-0.622184 0,-0.237066 0.10169,-0.444384 0.30489,-0.622184 0.2032,-0.186267 0.47421,-0.279569 0.81287,-0.279569 0.254,-1e-6 0.53339,0.05923 0.83819,0.177766 0.31327,0.118534 0.61338,0.279458 0.90124,0.482658 l 0.25425,-0.101802 0.27957,-1.485698 c -0.6858,-0.2794 -1.37589,-0.419096 -2.07016,-0.419096 z m 9.93118,0 c -0.5842,0 -1.10498,0.11008 -1.56218,0.330213 -0.4572,0.220133 -0.8126,0.524689 -1.0666,0.914156 -0.254,0.381 -0.38086,0.808476 -0.38086,1.282609 0,0.423333 0.10118,0.783187 0.30438,1.079521 0.2032,0.296333 0.44904,0.533784 0.7369,0.711584 0.28787,0.1778 0.66057,0.368341 1.11777,0.571541 0.49953,0.237067 0.85938,0.439932 1.07951,0.609266 0.2286,0.169333 0.34262,0.389491 0.34262,0.660424 0,0.254 -0.10563,0.474159 -0.31729,0.660425 -0.2032,0.1778 -0.49098,0.266651 -0.86352,0.266651 -0.31326,0 -0.67312,-0.07601 -1.07952,-0.22841 -0.39793,-0.160867 -0.76669,-0.389413 -1.10536,-0.685747 l -0.19017,0.101286 -0.24132,1.600419 c 0.8128,0.347134 1.62135,0.520899 2.42569,0.520899 0.6096,0 1.14715,-0.110079 1.61282,-0.330213 0.46566,-0.2286 0.82552,-0.533673 1.07952,-0.914673 0.254,-0.389466 0.38086,-0.816942 0.38086,-1.282609 0,-0.4318 -0.10563,-0.796106 -0.3173,-1.092439 -0.2032,-0.296334 -0.45297,-0.533268 -0.74931,-0.711068 -0.28786,-0.186267 -0.66449,-0.385196 -1.13016,-0.596863 -0.4826,-0.2286 -0.83852,-0.427529 -1.06712,-0.596863 -0.22013,-0.169333 -0.33021,-0.37665 -0.33021,-0.622184 0,-0.237066 0.10169,-0.444384 0.30489,-0.622184 0.2032,-0.186267 0.4742,-0.279569 0.81287,-0.279569 0.254,-1e-6 0.53339,0.05923 0.83819,0.177766 0.31327,0.118534 0.61389,0.279458 0.90176,0.482658 l 0.25373,-0.101802 0.27957,-1.485698 c -0.6858,-0.2794 -1.37589,-0.419096 -2.07016,-0.419096 z m -83.438835,1.765267 c -1.0414,0 -1.845506,0.296168 -2.412773,0.888835 -0.567267,0.592667 -0.851109,1.430842 -0.851109,2.514575 0,1.024467 0.262615,1.820701 0.787548,2.387968 0.524934,0.5588 1.26587,0.838192 2.222603,0.838192 1.0414,0 1.845506,-0.300621 2.412773,-0.901754 0.575733,-0.6096 0.863512,-1.465068 0.863512,-2.565735 0,-1.007533 -0.262098,-1.786475 -0.787032,-2.336808 -0.524933,-0.550333 -1.270323,-0.825273 -2.235522,-0.825273 z m 45.008625,0.05064 -2.819469,0.05064 0.06356,4.508769 -0.06356,1.904793 c 0.965202,0.0508 1.774279,0.07648 2.426209,0.07648 1.1176,0 1.97255,-0.305073 2.56522,-0.914673 0.60113,-0.6096 0.90175,-1.481327 0.90175,-2.615861 0,-0.9652 -0.26707,-1.706136 -0.80047,-2.222603 -0.52493,-0.524933 -1.28264,-0.787549 -2.27324,-0.787549 z m 13.74179,0 -2.81946,0.05064 0.0636,4.508769 -0.0636,1.904793 c 0.9652,0.0508 1.77376,0.07648 2.42569,0.07648 1.1176,0 1.97255,-0.305073 2.56522,-0.914673 0.60113,-0.6096 0.90175,-1.481327 0.90175,-2.615861 0,-0.9652 -0.26655,-1.706136 -0.79995,-2.222603 -0.52493,-0.524933 -1.28265,-0.787549 -2.27325,-0.787549 z m -48.628553,0.01292 -1.472776,0.101286 0.05064,3.911906 h -0.114205 l -2.565733,-3.975468 h -1.727028 l 0.06356,4.53409 -0.06356,1.879472 h 1.447974 l -0.05116,-2.247925 0.01292,-1.727026 h 0.08888 l 2.565218,3.974951 h 1.739945 l -0.06356,-2.031917 z m 16.065688,0.02532 -2.578137,0.0124 0.06356,4.508769 -0.06356,1.904793 c 0.846667,0.03387 1.502688,0.05116 1.968354,0.05116 1.049867,0 1.841649,-0.152537 2.375049,-0.457337 0.5334,-0.3048 0.799951,-0.779185 0.799951,-1.422652 0,-0.397933 -0.11008,-0.71533 -0.330213,-0.952396 -0.211666,-0.245534 -0.541904,-0.423235 -0.990637,-0.533301 0.3302,-0.143934 0.584428,-0.342863 0.762228,-0.596863 0.1778,-0.254 0.266649,-0.550168 0.266649,-0.888835 0,-0.524933 -0.20338,-0.927244 -0.60978,-1.206644 -0.397933,-0.2794 -0.952264,-0.419096 -1.663464,-0.419096 z m -14.859042,0.0124 -0.08888,1.219564 0.101803,0.127124 1.320332,-0.08888 h 0.368454 l 0.02532,3.250964 -0.06356,1.904793 h 1.5875 l -0.05064,-2.057239 0.03824,-3.098518 h 0.368453 l 1.295011,0.08888 0.08888,-1.219564 -0.08888,-0.127124 z m 7.099308,0 -2.247924,6.413562 h 1.562177 l 0.190169,-1.015959 0.08888,-0.26665 1.143082,-0.02532 1.29553,0.01292 0.114204,0.367936 0.177766,0.927075 h 1.612823 l -2.044321,-6.413562 z m 11.747603,0 0.06356,4.508769 -0.06356,1.904793 h 1.599903 l -0.06356,-2.057239 0.08888,-4.356323 z m 3.492293,0 0.07648,4.508769 -0.07648,1.904793 h 3.771863 l 0.101804,-1.193725 -0.08888,-0.114206 h -2.222603 l -0.02532,-0.749308 0.08888,-4.356323 z m 4.978509,0 0.06356,4.508769 -0.06356,1.904793 h 1.599901 l -0.06356,-2.057239 0.0894,-4.356323 z m 12.103134,0 -2.24792,6.413562 h 1.56218 l 0.19016,-1.015959 0.0889,-0.26665 1.14308,-0.02532 1.29553,0.01292 0.11421,0.367936 0.17776,0.927075 h 1.61282 l -2.04432,-6.413562 z m 12.35687,0 0.0636,4.508769 -0.0636,1.904793 h 4.39405 l 0.11472,-1.193725 -0.1018,-0.101286 -1.72703,0.05064 h -1.11776 l -0.0253,-0.812871 0.0124,-0.558622 h 1.0542 l 1.20664,0.03772 0.10181,-1.206128 -0.0894,-0.114205 -1.10485,0.03772 -1.14256,-0.0124 0.0253,-1.295529 h 1.19373 l 1.65106,0.06356 0.10128,-1.181323 -0.0889,-0.127124 z M 81.535075,23.13961 h 0.393774 c 0.4572,0 0.774597,0.05084 0.952397,0.152445 0.186266,0.1016 0.279053,0.283236 0.279053,0.545703 0,0.237067 -0.05923,0.423672 -0.177766,0.559139 -0.118533,0.127 -0.300169,0.219786 -0.545703,0.279053 l -0.927076,-0.02532 z m -25.311116,0.06356 c 0.372533,0 0.664766,0.06762 0.876432,0.203089 0.211667,0.135466 0.368139,0.364013 0.469739,0.685746 0.1016,0.313267 0.152445,0.749131 0.152445,1.307931 0,0.702733 -0.11453,1.193895 -0.34313,1.473295 -0.220134,0.2794 -0.596765,0.419095 -1.130165,0.419095 -0.364067,0 -0.656299,-0.06762 -0.876433,-0.203088 -0.211666,-0.135467 -0.368138,-0.360077 -0.469738,-0.673344 -0.09313,-0.321733 -0.139525,-0.762049 -0.139525,-1.320849 0,-0.694267 0.110079,-1.180976 0.330213,-1.460376 0.2286,-0.287867 0.605229,-0.431499 1.130162,-0.431499 z m 45.021541,0.03772 c 0.54187,0 0.93527,0.165377 1.18081,0.495577 0.24553,0.321734 0.36845,0.859288 0.36845,1.612822 0,1.286933 -0.50794,1.930631 -1.52394,1.930631 -0.14393,0 -0.32163,-0.0089 -0.5333,-0.02584 -0.21167,-0.01693 -0.4195,-0.03816 -0.6227,-0.06356 l -0.0253,-0.825273 0.0636,-3.073197 c 0.3302,-0.03387 0.69451,-0.05116 1.09244,-0.05116 z m 13.74128,0 c 0.54187,0 0.93527,0.165377 1.18081,0.495577 0.24553,0.321734 0.36845,0.859288 0.36845,1.612822 0,1.286933 -0.50794,1.930631 -1.52394,1.930631 -0.14393,0 -0.32163,-0.0089 -0.5333,-0.02584 -0.21167,-0.01693 -0.41898,-0.03816 -0.62218,-0.06356 l -0.0258,-0.825273 0.0636,-3.073197 c 0.3302,-0.03387 0.69451,-0.05116 1.09244,-0.05116 z m -39.331967,0.228927 h 0.101804 l 0.723987,2.451013 -0.851111,0.0124 -0.825789,-0.0124 z m 32.321547,0 h 0.10128 l 0.72399,2.451013 -0.8506,0.0124 -0.82579,-0.0124 z m -25.374684,2.285649 c 0.296334,0.06773 0.516493,0.161036 0.660427,0.279569 0.143933,0.118533 0.216006,0.279458 0.216006,0.482658 0,0.2794 -0.110078,0.49117 -0.330211,0.635103 -0.211667,0.135467 -0.520676,0.203089 -0.927076,0.203089 -0.2032,0 -0.440135,-0.01284 -0.711068,-0.03824 l -0.02584,-0.952397 0.01292,-0.583943 z" />
    <path
       id="text111"
       style="font-style:normal;font-variant:normal;font-weight:bold;font-stretch:normal;font-size:6.35px;line-height:1.25;font-family:'Alegreya Sans SC';-inkscape-font-specification:'Alegreya Sans SC, Bold';font-variant-ligatures:normal;font-variant-caps:normal;font-variant-numeric:normal;font-variant-east-asian:normal;fill:#1d3156;fill-opacity:1;stroke:none;stroke-width:0.999999"
       d="M 294.20898 121.57227 C 291.98498 122.54827 290.26483 123.82811 289.04883 125.41211 C 287.83283 126.99611 287.22461 128.7648 287.22461 130.7168 C 287.22461 132.4128 287.64809 133.74117 288.49609 134.70117 C 289.34409 135.64517 290.56053 136.11719 292.14453 136.11719 C 293.21653 136.11719 294.1363 135.90819 294.9043 135.49219 C 295.6723 135.06019 296.24881 134.48367 296.63281 133.76367 C 297.03281 133.04367 297.23242 132.25267 297.23242 131.38867 C 297.23242 130.18867 296.87234 129.19611 296.15234 128.41211 C 295.44834 127.61211 294.48005 127.21289 293.24805 127.21289 C 292.35205 127.21289 291.54422 127.43677 290.82422 127.88477 L 290.63281 127.66797 C 291.03281 126.73997 291.697 125.93958 292.625 125.26758 C 293.569 124.59558 294.88055 123.94078 296.56055 123.30078 L 296.56055 122.98828 L 294.37695 121.57227 L 294.20898 121.57227 z M 269.12891 123.49219 C 268.05691 123.49219 267.13714 123.70863 266.36914 124.14062 C 265.60114 124.55662 265.01719 125.12375 264.61719 125.84375 C 264.23319 126.56375 264.04102 127.3567 264.04102 128.2207 C 264.04102 129.4207 264.3917 130.4207 265.0957 131.2207 C 265.8157 132.0047 266.79339 132.39648 268.02539 132.39648 C 268.92139 132.39648 269.72922 132.17261 270.44922 131.72461 L 270.64062 131.94141 C 270.24063 132.86941 269.569 133.66784 268.625 134.33984 C 267.697 135.01184 266.39289 135.66859 264.71289 136.30859 L 264.71289 136.62109 L 266.89648 138.03711 L 267.06445 138.03711 C 269.28845 137.06111 271.00861 135.78127 272.22461 134.19727 C 273.44061 132.61327 274.04883 130.84458 274.04883 128.89258 C 274.04883 127.19658 273.62534 125.87564 272.77734 124.93164 C 271.92934 123.97164 270.71291 123.49219 269.12891 123.49219 z M 280.7207 123.49219 C 279.6487 123.49219 278.72894 123.70863 277.96094 124.14062 C 277.19294 124.55662 276.60898 125.12375 276.20898 125.84375 C 275.82498 126.56375 275.63281 127.3567 275.63281 128.2207 C 275.63281 129.4207 275.98545 130.4207 276.68945 131.2207 C 277.40945 132.0047 278.38519 132.39648 279.61719 132.39648 C 280.51319 132.39648 281.32102 132.17261 282.04102 131.72461 L 282.23242 131.94141 C 281.83242 132.86941 281.1608 133.66784 280.2168 134.33984 C 279.2888 135.01184 277.98469 135.66859 276.30469 136.30859 L 276.30469 136.62109 L 278.48828 138.03711 L 278.65625 138.03711 C 280.88025 137.06111 282.60041 135.78127 283.81641 134.19727 C 285.03241 132.61327 285.64062 130.84458 285.64062 128.89258 C 285.64062 127.19658 285.21714 125.87564 284.36914 124.93164 C 283.52114 123.97164 282.3047 123.49219 280.7207 123.49219 z M 221.84961 123.58789 C 220.87361 123.58789 220.01725 123.7558 219.28125 124.0918 C 218.56125 124.4278 218.00156 124.89238 217.60156 125.48438 C 217.21756 126.07637 217.02539 126.73313 217.02539 127.45312 C 217.02539 128.14112 217.18391 128.71569 217.50391 129.17969 C 217.83991 129.64369 218.23364 130.01316 218.68164 130.28516 C 219.14564 130.54116 219.73703 130.821 220.45703 131.125 C 221.14503 131.397 221.64875 131.64514 221.96875 131.86914 C 222.30475 132.07714 222.47266 132.35698 222.47266 132.70898 C 222.47266 133.04498 222.32902 133.32483 222.04102 133.54883 C 221.76902 133.77283 221.40894 133.88477 220.96094 133.88477 C 220.44894 133.88477 219.86498 133.74112 219.20898 133.45312 C 218.55298 133.16513 217.96159 132.78078 217.43359 132.30078 L 217.12109 132.51562 L 216.71289 135.34766 C 217.35289 135.60366 218.00964 135.78839 218.68164 135.90039 C 219.36964 136.02839 220.00017 136.0918 220.57617 136.0918 C 221.64817 136.0918 222.54563 135.90902 223.26562 135.54102 C 224.00162 135.17302 224.54448 134.69161 224.89648 134.09961 C 225.26448 133.49161 225.44922 132.84425 225.44922 132.15625 C 225.44922 131.46825 225.28131 130.90112 224.94531 130.45312 C 224.62531 129.98913 224.23353 129.62905 223.76953 129.37305 C 223.32153 129.11705 222.73758 128.8372 222.01758 128.5332 C 221.32958 128.2452 220.82391 127.99706 220.50391 127.78906 C 220.18391 127.56506 220.02539 127.28522 220.02539 126.94922 C 220.02539 126.64522 220.1522 126.38769 220.4082 126.17969 C 220.6642 125.95569 221.01684 125.84375 221.46484 125.84375 C 221.86484 125.84375 222.30516 125.94081 222.78516 126.13281 C 223.26516 126.32481 223.76144 126.61209 224.27344 126.99609 L 224.70508 126.87695 L 225.16016 124.18945 C 224.10416 123.78945 223.00161 123.58789 221.84961 123.58789 z M 260.41602 123.61328 L 254.80078 125.2207 L 254.80078 127.78906 L 255.04102 127.95703 L 257.75195 127.23633 L 257.75195 131.2207 L 257.60938 135.87695 L 260.84766 135.87695 L 260.67969 130.88477 L 260.87305 123.94922 L 260.41602 123.61328 z M 198.37695 123.66016 L 193.04883 123.75586 L 193.16797 132.27734 L 193.04883 135.87695 C 194.87283 135.97295 196.40081 136.01953 197.63281 136.01953 C 199.74481 136.01953 201.36047 135.44497 202.48047 134.29297 C 203.61647 133.14097 204.18555 131.49166 204.18555 129.34766 C 204.18555 127.52366 203.67987 126.12444 202.67188 125.14844 C 201.67988 124.15644 200.24895 123.66016 198.37695 123.66016 z M 233.56055 123.66016 L 228.23242 123.75586 L 228.35352 132.27734 L 228.23242 135.87695 C 230.05642 135.97295 231.58441 136.01953 232.81641 136.01953 C 234.92841 136.01953 236.54406 135.44497 237.66406 134.29297 C 238.80006 133.14097 239.36914 131.49166 239.36914 129.34766 C 239.36914 127.52366 238.86542 126.12444 237.85742 125.14844 C 236.86542 124.15644 235.43255 123.66016 233.56055 123.66016 z M 206.60938 123.75586 L 206.72852 132.27734 L 206.60938 135.87695 L 214.91211 135.87695 L 215.12891 133.62109 L 214.9375 133.42773 L 211.67188 133.52539 L 209.56055 133.52539 L 209.51172 131.98828 L 209.53711 130.93164 L 211.5293 130.93164 L 213.80859 131.00391 L 214 128.72461 L 213.83203 128.50781 L 211.74414 128.58008 L 209.58398 128.55664 L 209.63281 126.10938 L 211.88867 126.10938 L 215.00781 126.22852 L 215.20117 123.99609 L 215.0332 123.75586 L 206.60938 123.75586 z M 241.79297 123.75586 L 241.91211 132.27734 L 241.79297 135.87695 L 250.0957 135.87695 L 250.3125 133.62109 L 250.12109 133.42773 L 246.85742 133.52539 L 244.74414 133.52539 L 244.69727 131.98828 L 244.7207 130.93164 L 246.71289 130.93164 L 248.99219 131.00391 L 249.18555 128.72461 L 249.01758 128.50781 L 246.92773 128.58008 L 244.76953 128.55664 L 244.81641 126.10938 L 247.07227 126.10938 L 250.19336 126.22852 L 250.38477 123.99609 L 250.2168 123.75586 L 241.79297 123.75586 z M 268.98438 125.58008 C 269.76837 125.58008 270.32063 125.85992 270.64062 126.41992 C 270.97662 126.96392 271.14453 127.80541 271.14453 128.94141 L 271.14453 129.44531 C 270.39253 129.92531 269.66494 130.16406 268.96094 130.16406 C 268.28894 130.16406 267.77583 129.96445 267.42383 129.56445 C 267.08783 129.16445 266.91992 128.58794 266.91992 127.83594 C 266.91992 127.11594 267.09722 126.56369 267.44922 126.17969 C 267.81722 125.77969 268.32838 125.58008 268.98438 125.58008 z M 280.57617 125.58008 C 281.36017 125.58008 281.91242 125.85992 282.23242 126.41992 C 282.56842 126.96392 282.73633 127.80541 282.73633 128.94141 L 282.73633 129.44531 C 281.98433 129.92531 281.25673 130.16406 280.55273 130.16406 C 279.88073 130.16406 279.36762 129.96445 279.01562 129.56445 C 278.67963 129.16445 278.51172 128.58794 278.51172 127.83594 C 278.51172 127.11594 278.68902 126.56369 279.04102 126.17969 C 279.40902 125.77969 279.92017 125.58008 280.57617 125.58008 z M 198.13672 126.08398 C 199.16072 126.08398 199.90514 126.39553 200.36914 127.01953 C 200.83314 127.62753 201.06445 128.64436 201.06445 130.06836 C 201.06445 132.50036 200.10555 133.7168 198.18555 133.7168 C 197.91355 133.7168 197.57578 133.69997 197.17578 133.66797 C 196.77578 133.63597 196.384 133.59683 196 133.54883 L 195.95312 131.98828 L 196.07227 126.17969 C 196.69627 126.11569 197.38472 126.08398 198.13672 126.08398 z M 233.32031 126.08398 C 234.34431 126.08398 235.08873 126.39553 235.55273 127.01953 C 236.01673 127.62753 236.24805 128.64436 236.24805 130.06836 C 236.24805 132.50036 235.28914 133.7168 233.36914 133.7168 C 233.09714 133.7168 232.76133 133.69997 232.36133 133.66797 C 231.96133 133.63597 231.56955 133.59683 231.18555 133.54883 L 231.13672 131.98828 L 231.25586 126.17969 C 231.87986 126.11569 232.56831 126.08398 233.32031 126.08398 z M 292.3125 129.44531 C 292.9845 129.44531 293.48822 129.64492 293.82422 130.04492 C 294.17622 130.44492 294.35352 131.02144 294.35352 131.77344 C 294.35352 132.49344 294.16878 133.05313 293.80078 133.45312 C 293.44878 133.83712 292.94506 134.0293 292.28906 134.0293 C 291.50506 134.0293 290.94537 133.75689 290.60938 133.21289 C 290.28938 132.65289 290.12891 131.80397 290.12891 130.66797 L 290.12891 130.16406 C 290.88091 129.68406 291.6085 129.44531 292.3125 129.44531 z "
       transform="matrix(0.26458333,0,0,0.26458333,13.229168,3.1186156)" />
  </g>
</svg>
