<?xml version="1.0" encoding="UTF-8" standalone="no"?>
<svg
   xmlns:dc="http://purl.org/dc/elements/1.1/"
   xmlns:cc="http://creativecommons.org/ns#"
   xmlns:rdf="http://www.w3.org/1999/02/22-rdf-syntax-ns#"
   xmlns:svg="http://www.w3.org/2000/svg"
   xmlns="http://www.w3.org/2000/svg"
   xmlns:sodipodi="http://sodipodi.sourceforge.net/DTD/sodipodi-0.dtd"
   xmlns:inkscape="http://www.inkscape.org/namespaces/inkscape"
   width="485.19821"
   height="104.15742"
   viewBox="0 0 128.37536 27.55832"
   version="1.1"
   id="svg185"
   inkscape:version="1.0.2 (e86c870879, 2021-01-15)"
   sodipodi:docname="consistem3.svg">
  <defs
     id="defs179">
    <filter
       style="color-interpolation-filters:sRGB"
       inkscape:label="Clean Edges"
       id="filter2843">
      <feGaussianBlur
         stdDeviation="0.127217"
         result="blur"
         id="feGaussianBlur2837" />
      <feComposite
         in="SourceGraphic"
         in2="blur"
         operator="in"
         result="composite1"
         id="feComposite2839" />
      <feComposite
         in="composite1"
         in2="composite1"
         operator="in"
         result="fbSourceGraphic"
         id="feComposite2841" />
      <feColorMatrix
         result="fbSourceGraphicAlpha"
         in="fbSourceGraphic"
         values="0 0 0 -1 0 0 0 0 -1 0 0 0 0 -1 0 0 0 0 1 0"
         id="feColorMatrix2845" />
      <feGaussianBlur
         id="feGaussianBlur2847"
         stdDeviation="0.127217"
         result="blur"
         in="fbSourceGraphic" />
      <feComposite
         in2="blur"
         id="feComposite2849"
         in="fbSourceGraphic"
         operator="in"
         result="composite1" />
      <feComposite
         in2="composite1"
         id="feComposite2851"
         in="composite1"
         operator="in"
         result="composite2" />
    </filter>
  </defs>
  <sodipodi:namedview
     id="base"
     pagecolor="#ffffff"
     bordercolor="#666666"
     borderopacity="1.0"
     inkscape:pageopacity="0.0"
     inkscape:pageshadow="2"
     inkscape:zoom="2.08"
     inkscape:cx="278.19064"
     inkscape:cy="34.442507"
     inkscape:document-units="mm"
     inkscape:current-layer="layer1"
     inkscape:document-rotation="0"
     showgrid="true"
     units="px"
     objecttolerance="10000"
     inkscape:window-width="1920"
     inkscape:window-height="997"
     inkscape:window-x="0"
     inkscape:window-y="0"
     inkscape:window-maximized="1"
     showguides="true">
    <inkscape:grid
       type="xygrid"
       id="grid187"
       spacingx="2.6458334"
       spacingy="2.6458334"
       dotted="false"
       originx="-13.229167"
       originy="-2.5894511" />
  </sodipodi:namedview>
  <metadata
     id="metadata182">
    <rdf:RDF>
      <cc:Work
         rdf:about="">
        <dc:format>image/svg+xml</dc:format>
        <dc:type
           rdf:resource="http://purl.org/dc/dcmitype/StillImage" />
        <dc:title />
      </cc:Work>
    </rdf:RDF>
  </metadata>
  <g
     inkscape:label="Layer 1"
     inkscape:groupmode="layer"
     id="layer1"
     transform="translate(-13.229168,-2.5894489)">
    <path
       id="rect255-0"
       style="fill:#2c5aa0;fill-opacity:1;stroke-width:0.103345"
       d="m 13.229168,4.1881716 c 0,5.8205024 0,11.6410044 0,17.4615064 7.524391,0 15.048782,0 22.573171,0 0,-1.760796 0,-3.521592 0,-5.282388 -5.763594,0 -11.527189,0 -17.290783,0 0,-2.355818 0,-4.711636 0,-7.067454 7.822321,2e-7 15.64464,0 23.46696,0 0,-1.7607959 0,-3.521592 0,-5.2823881 -9.583116,0 -19.166232,1e-7 -28.749348,0 v 0.1285449 z m 6.173666,6.1736654 c 0,1.703889 0,3.407777 0,5.111665 5.764432,0 11.528863,0 17.293294,0 0,2.356655 0,4.713309 0,7.069965 -7.822321,0 -15.64464,0 -23.46696,0 0,1.760795 0,3.521591 0,5.282388 9.583116,0 19.166232,0 28.749348,0 0,-5.878247 0,-11.756495 0,-17.634742 -7.525228,0 -15.050455,0 -22.575682,0 v 0.128545 z" />
    <g
       id="g2971"
       transform="matrix(0.74457338,0,0,0.74457338,-4.1152385,3.5270426)">
      <g
         id="g2965">
        <g
           id="g313"
           transform="matrix(0.63157897,0,0,0.63157897,23.294422,0.83552637)">
          <path
             id="rect255"
             style="fill:#b4c7e7;fill-opacity:1;stroke-width:0.836659"
             d="M 0,0 V 140 H 180 V 100 H 40 V 40 h 180 10 V 0 h -10 z"
             transform="scale(0.26458333)" />
          <path
             id="rect255-2"
             style="fill:#4472c4;fill-opacity:1;stroke-width:0.836659"
             d="m 50,50 v 40 h 140 v 60 H 10 0 v 40 H 10 230 V 50 Z"
             transform="scale(0.26458333)" />
        </g>
      </g>
    </g>
    <path
       id="text317"
       style="font-style:normal;font-variant:normal;font-weight:bold;font-stretch:normal;font-size:22.5778px;line-height:1.25;font-family:'Alegreya Sans SC';-inkscape-font-specification:'Alegreya Sans SC, Bold';font-variant-ligatures:normal;font-variant-caps:normal;font-variant-numeric:normal;font-variant-east-asian:normal;fill:#1d3156;fill-opacity:1;stroke:none;stroke-width:0.999999"
       d="M 140.96484 2 C 132.60217 2 126.11582 4.5035383 121.50781 9.5097656 C 116.9567 14.515993 114.68164 21.569644 114.68164 30.671875 C 114.68164 39.60344 116.81536 46.45961 121.08203 51.238281 C 125.40559 56.016953 131.66346 58.40625 139.85547 58.40625 C 144.63414 58.40625 149.18425 57.409082 153.50781 55.417969 L 154.44727 45.605469 L 153.42188 45.007812 C 151.60143 46.145591 149.55485 47.055614 147.2793 47.738281 C 145.06063 48.36406 142.89786 48.677734 140.79297 48.677734 C 136.24185 48.677734 132.77215 47.084219 130.38281 43.898438 C 128.05037 40.655768 126.88477 35.821029 126.88477 29.392578 C 126.88477 17.502788 131.40583 11.556641 140.45117 11.556641 C 142.61295 11.556641 144.71958 11.899364 146.76758 12.582031 C 148.81558 13.264699 150.69177 14.201816 152.39844 15.396484 L 153.33789 14.970703 L 155.38477 5.328125 C 151.11809 3.1094561 146.3124 2 140.96484 2 z M 181.15625 13.861328 C 174.15891 13.861328 168.75492 15.851758 164.94336 19.833984 C 161.1318 23.816211 159.22461 29.448684 159.22461 36.730469 C 159.22461 43.614031 160.98851 48.961878 164.51562 52.773438 C 168.04274 56.528108 173.02077 58.40625 179.44922 58.40625 C 186.44656 58.40625 191.85055 56.386771 195.66211 52.347656 C 199.53056 48.251652 201.46484 42.504938 201.46484 35.109375 C 201.46484 28.33959 199.70094 23.105985 196.17383 19.408203 C 192.64671 15.710422 187.64159 13.861328 181.15625 13.861328 z M 276.81445 13.947266 C 273.34423 13.947266 270.30049 14.543613 267.68359 15.738281 C 265.12359 16.932949 263.13316 18.582609 261.71094 20.6875 C 260.3456 22.792391 259.66211 25.125544 259.66211 27.685547 C 259.66211 30.131772 260.23136 32.180299 261.36914 33.830078 C 262.56381 35.479858 263.95789 36.786794 265.55078 37.753906 C 267.20056 38.664129 269.30523 39.661298 271.86523 40.742188 C 274.31146 41.7093 276.10246 42.590273 277.24023 43.386719 C 278.4349 44.126275 279.0332 45.12149 279.0332 46.373047 C 279.0332 47.567715 278.52205 48.56293 277.49805 49.359375 C 276.53093 50.15582 275.24914 50.554688 273.65625 50.554688 C 271.8358 50.554687 269.76018 50.043532 267.42773 49.019531 C 265.09529 47.99553 262.99062 46.628543 261.11328 44.921875 L 260.00391 45.691406 L 258.55273 55.759766 C 260.82829 56.669989 263.16145 57.324434 265.55078 57.722656 C 267.99701 58.177768 270.24301 58.40625 272.29102 58.40625 C 276.10258 58.40625 279.28961 57.751805 281.84961 56.443359 C 284.4665 55.134914 286.40079 53.427157 287.65234 51.322266 C 288.96079 49.160486 289.61523 46.856381 289.61523 44.410156 C 289.61523 41.963932 289.01693 39.944453 287.82227 38.351562 C 286.68449 36.701783 285.2904 35.421942 283.64062 34.511719 C 282.04773 33.601496 279.97211 32.606281 277.41211 31.525391 C 274.96588 30.50139 273.17294 29.620416 272.03516 28.880859 C 270.89738 28.084414 270.32812 27.087246 270.32812 25.892578 C 270.32812 24.811688 270.78509 23.901666 271.69531 23.162109 C 272.60554 22.365664 273.85633 21.96875 275.44922 21.96875 C 276.87144 21.96875 278.43591 22.30952 280.14258 22.992188 C 281.84925 23.674855 283.61315 24.699118 285.43359 26.064453 L 286.96875 25.636719 L 288.58984 16.080078 C 284.83517 14.657854 280.91046 13.947266 276.81445 13.947266 z M 338.5957 13.947266 C 335.12548 13.947266 332.08174 14.543613 329.46484 15.738281 C 326.90484 16.932949 324.91441 18.582609 323.49219 20.6875 C 322.12685 22.792391 321.44336 25.125544 321.44336 27.685547 C 321.44336 30.131772 322.01261 32.180299 323.15039 33.830078 C 324.34506 35.479858 325.73914 36.786794 327.33203 37.753906 C 328.98181 38.664129 331.08648 39.661298 333.64648 40.742188 C 336.09271 41.7093 337.88371 42.590273 339.02148 43.386719 C 340.21615 44.126275 340.81445 45.12149 340.81445 46.373047 C 340.81445 47.567715 340.3033 48.56293 339.2793 49.359375 C 338.31218 50.15582 337.03039 50.554688 335.4375 50.554688 C 333.61705 50.554687 331.54143 50.043532 329.20898 49.019531 C 326.87654 47.99553 324.77187 46.628543 322.89453 44.921875 L 321.78516 45.691406 L 320.33398 55.759766 C 322.60954 56.669989 324.9427 57.324434 327.33203 57.722656 C 329.77826 58.177768 332.02426 58.40625 334.07227 58.40625 C 337.88383 58.40625 341.07086 57.751805 343.63086 56.443359 C 346.24775 55.134914 348.18204 53.427157 349.43359 51.322266 C 350.74204 49.160486 351.39648 46.856381 351.39648 44.410156 C 351.39648 41.963932 350.79818 39.944453 349.60352 38.351562 C 348.46574 36.701783 347.07165 35.421942 345.42188 34.511719 C 343.82898 33.601496 341.75336 32.606281 339.19336 31.525391 C 336.74713 30.50139 334.95419 29.620416 333.81641 28.880859 C 332.67863 28.084414 332.11133 27.087246 332.11133 25.892578 C 332.11133 24.811688 332.56634 23.901666 333.47656 23.162109 C 334.38679 22.365664 335.63758 21.96875 337.23047 21.96875 C 338.65269 21.96875 340.21716 22.30952 341.92383 22.992188 C 343.6305 23.674855 345.3944 24.699118 347.21484 26.064453 L 348.75 25.636719 L 350.37109 16.080078 C 346.61642 14.657854 342.69171 13.947266 338.5957 13.947266 z M 249.16602 14.287109 L 239.26758 14.970703 L 239.60938 41.253906 L 238.8418 41.253906 L 221.60352 14.544922 L 209.99805 14.544922 L 210.42578 45.007812 L 209.99805 57.636719 L 219.72656 57.636719 L 219.38477 42.533203 L 219.4707 30.927734 L 220.06836 30.927734 L 237.30469 57.636719 L 248.99609 57.636719 L 248.56836 43.984375 L 249.16602 14.287109 z M 299.51367 14.544922 L 299.93945 44.837891 L 299.51367 57.636719 L 310.26562 57.636719 L 309.83789 43.8125 L 310.43555 14.544922 L 299.51367 14.544922 z M 356.51562 14.544922 L 355.91797 22.736328 L 356.60156 23.589844 L 365.47656 22.992188 L 367.95117 22.992188 L 368.12109 44.837891 L 367.69531 57.636719 L 378.36133 57.636719 L 378.01953 43.8125 L 378.27539 22.992188 L 380.75 22.992188 L 389.45508 23.589844 L 390.05078 15.396484 L 389.45508 14.544922 L 356.51562 14.544922 z M 397.90234 14.544922 L 398.32812 44.837891 L 397.90234 57.636719 L 427.42773 57.636719 L 428.19531 49.615234 L 427.51367 48.933594 L 415.9082 49.275391 L 408.39844 49.275391 L 408.22656 43.8125 L 408.3125 40.058594 L 415.39648 40.058594 L 423.50195 40.314453 L 424.18555 32.208984 L 423.58789 31.439453 L 416.16406 31.695312 L 408.48438 31.611328 L 408.6543 22.90625 L 416.67578 22.90625 L 427.76953 23.333984 L 428.45117 15.396484 L 427.85352 14.544922 L 397.90234 14.544922 z M 438.94727 14.544922 L 434.33984 57.636719 L 443.4707 57.636719 L 444.4082 43.556641 L 445.94531 30.501953 L 446.62695 30.501953 L 455.07617 53.371094 L 463.35352 53.371094 L 472.82422 30.501953 L 473.50781 30.501953 L 474.95898 44.582031 L 475.55469 57.636719 L 485.19727 57.636719 L 481.1875 14.544922 L 468.81445 14.544922 L 466.9375 20.943359 L 460.19531 39.119141 L 459.51367 39.119141 L 453.2832 20.859375 L 451.57617 14.544922 L 438.94727 14.544922 z M 180.2168 22.564453 C 182.71991 22.564453 184.68325 23.021417 186.10547 23.931641 C 187.52769 24.841864 188.57905 26.377283 189.26172 28.539062 C 189.94439 30.643954 190.28711 33.573455 190.28711 37.328125 C 190.28711 42.049908 189.51842 45.349227 187.98242 47.226562 C 186.50331 49.103898 183.97268 50.042969 180.38867 50.042969 C 177.94245 50.042969 175.97911 49.587958 174.5 48.677734 C 173.07778 47.767511 172.02446 46.259188 171.3418 44.154297 C 170.71602 41.992517 170.4043 39.033967 170.4043 35.279297 C 170.4043 30.614403 171.14393 27.344132 172.62305 25.466797 C 174.15905 23.532573 176.68968 22.564453 180.2168 22.564453 z "
       transform="matrix(0.26458333,0,0,0.26458333,13.229168,2.5894489)" />
    <path
       id="text321"
       style="font-style:normal;font-variant:normal;font-weight:bold;font-stretch:normal;font-size:12.7px;line-height:1.25;font-family:'Alegreya Sans SC';-inkscape-font-specification:'Alegreya Sans SC, Bold';font-variant-ligatures:normal;font-variant-caps:normal;font-variant-numeric:normal;font-variant-east-asian:normal;fill:#1d3156;fill-opacity:1;stroke:none;stroke-width:0.999999"
       d="M 458.91602 64.998047 L 449.02734 102.62891 L 449.41211 103.1582 L 453.82617 103.1582 L 463.76367 65.574219 L 463.23438 64.998047 L 458.91602 64.998047 z M 138.41992 66.341797 C 133.71592 66.341797 130.06856 67.750406 127.47656 70.566406 C 124.91656 73.382406 123.63672 77.34875 123.63672 82.46875 C 123.63672 87.49275 124.83633 91.349109 127.23633 94.037109 C 129.66833 96.725109 133.18888 98.070312 137.79688 98.070312 C 140.48487 98.070312 143.04456 97.508672 145.47656 96.388672 L 146.00391 90.869141 L 145.42773 90.533203 C 144.40373 91.173203 143.25266 91.686313 141.97266 92.070312 C 140.72466 92.422312 139.50822 92.597656 138.32422 92.597656 C 135.76422 92.597656 133.81275 91.702156 132.46875 89.910156 C 131.15675 88.086156 130.5 85.366 130.5 81.75 C 130.5 75.062 133.04481 71.716797 138.13281 71.716797 C 139.34881 71.716797 140.53159 71.908969 141.68359 72.292969 C 142.83559 72.676969 143.89156 73.204953 144.85156 73.876953 L 145.38086 73.636719 L 146.53125 68.212891 C 144.13125 66.964891 141.42792 66.341797 138.41992 66.341797 z M 438.85156 66.341797 C 436.64356 66.341797 434.67527 66.757844 432.94727 67.589844 C 431.21927 68.421844 429.87602 69.572922 428.91602 71.044922 C 427.95602 72.484922 427.47461 74.100578 427.47461 75.892578 C 427.47461 77.492578 427.85895 78.852656 428.62695 79.972656 C 429.39495 81.092656 430.32411 81.990109 431.41211 82.662109 C 432.50011 83.334109 433.90677 84.054266 435.63477 84.822266 C 437.52277 85.718266 438.88284 86.485 439.71484 87.125 C 440.57884 87.765 441.01172 88.597094 441.01172 89.621094 C 441.01172 90.581094 440.61055 91.413188 439.81055 92.117188 C 439.04255 92.789187 437.95487 93.125 436.54688 93.125 C 435.36288 93.125 434.0028 92.837719 432.4668 92.261719 C 430.9628 91.653719 429.57102 90.789922 428.29102 89.669922 L 427.57031 90.052734 L 426.6582 96.101562 C 429.7302 97.413562 432.78813 98.070312 435.82812 98.070312 C 438.13212 98.070312 440.16383 97.654266 441.92383 96.822266 C 443.68383 95.958266 445.04391 94.805234 446.00391 93.365234 C 446.96391 91.893234 447.44336 90.277578 447.44336 88.517578 C 447.44336 86.885578 447.04414 85.508672 446.24414 84.388672 C 445.47614 83.268672 444.53211 82.373172 443.41211 81.701172 C 442.32411 80.997172 440.89867 80.245312 439.13867 79.445312 C 437.31467 78.581313 435.97142 77.829453 435.10742 77.189453 C 434.27542 76.549453 433.85938 75.765891 433.85938 74.837891 C 433.85938 73.941891 434.24372 73.158328 435.01172 72.486328 C 435.77972 71.782328 436.80398 71.429688 438.08398 71.429688 C 439.04398 71.429687 440.09995 71.653563 441.25195 72.101562 C 442.43595 72.549562 443.5702 73.157781 444.6582 73.925781 L 445.61914 73.541016 L 446.67578 67.925781 C 444.08378 66.869781 441.47556 66.341797 438.85156 66.341797 z M 476.38672 66.341797 C 474.17872 66.341797 472.21042 66.757844 470.48242 67.589844 C 468.75442 68.421844 467.41117 69.572922 466.45117 71.044922 C 465.49117 72.484922 465.01172 74.100578 465.01172 75.892578 C 465.01172 77.492578 465.39411 78.852656 466.16211 79.972656 C 466.93011 81.092656 467.85927 81.990109 468.94727 82.662109 C 470.03527 83.334109 471.44388 84.054266 473.17188 84.822266 C 475.05987 85.718266 476.41995 86.485 477.25195 87.125 C 478.11595 87.765 478.54688 88.597094 478.54688 89.621094 C 478.54687 90.581094 478.14766 91.413188 477.34766 92.117188 C 476.57966 92.789187 475.49198 93.125 474.08398 93.125 C 472.89998 93.125 471.53991 92.837719 470.00391 92.261719 C 468.49991 91.653719 467.10617 90.789922 465.82617 89.669922 L 465.10742 90.052734 L 464.19531 96.101562 C 467.26731 97.413562 470.32328 98.070312 473.36328 98.070312 C 475.66728 98.070312 477.69898 97.654266 479.45898 96.822266 C 481.21898 95.958266 482.57906 94.805234 483.53906 93.365234 C 484.49906 91.893234 484.97852 90.277578 484.97852 88.517578 C 484.97852 86.885578 484.5793 85.508672 483.7793 84.388672 C 483.0113 83.268672 482.06727 82.373172 480.94727 81.701172 C 479.85927 80.997172 478.43578 80.245312 476.67578 79.445312 C 474.85178 78.581313 473.50658 77.829453 472.64258 77.189453 C 471.81058 76.549453 471.39453 75.765891 471.39453 74.837891 C 471.39453 73.941891 471.77888 73.158328 472.54688 72.486328 C 473.31487 71.782328 474.33914 71.429688 475.61914 71.429688 C 476.57914 71.429687 477.63511 71.653563 478.78711 72.101562 C 479.97111 72.549562 481.10731 73.157781 482.19531 73.925781 L 483.1543 73.541016 L 484.21094 67.925781 C 481.61894 66.869781 479.01072 66.341797 476.38672 66.341797 z M 161.02734 73.013672 C 157.09134 73.013672 154.0522 74.133047 151.9082 76.373047 C 149.7642 78.613047 148.69141 81.780953 148.69141 85.876953 C 148.69141 89.748953 149.68397 92.758344 151.66797 94.902344 C 153.65197 97.014344 156.45236 98.070312 160.06836 98.070312 C 164.00436 98.070312 167.0435 96.934109 169.1875 94.662109 C 171.3635 92.358109 172.45117 89.124844 172.45117 84.964844 C 172.45117 81.156844 171.46056 78.212812 169.47656 76.132812 C 167.49256 74.052813 164.67534 73.013672 161.02734 73.013672 z M 331.13867 73.205078 L 320.48242 73.396484 L 320.72266 90.4375 L 320.48242 97.636719 C 324.13042 97.828719 327.18834 97.925781 329.65234 97.925781 C 333.87634 97.925781 337.10766 96.77275 339.34766 94.46875 C 341.61966 92.16475 342.75586 88.870031 342.75586 84.582031 C 342.75586 80.934031 341.74647 78.133641 339.73047 76.181641 C 337.74647 74.197641 334.88267 73.205078 331.13867 73.205078 z M 383.07617 73.205078 L 372.41992 73.396484 L 372.66016 90.4375 L 372.41992 97.636719 C 376.06792 97.828719 379.12389 97.925781 381.58789 97.925781 C 385.81189 97.925781 389.0432 96.77275 391.2832 94.46875 C 393.5552 92.16475 394.69141 88.870031 394.69141 84.582031 C 394.69141 80.934031 393.68397 78.133641 391.66797 76.181641 C 389.68397 74.197641 386.82017 73.205078 383.07617 73.205078 z M 199.2832 73.253906 L 193.7168 73.636719 L 193.9082 88.421875 L 193.47656 88.421875 L 183.7793 73.396484 L 177.25195 73.396484 L 177.49219 90.533203 L 177.25195 97.636719 L 182.72461 97.636719 L 182.53125 89.140625 L 182.58008 82.613281 L 182.91602 82.613281 L 192.61133 97.636719 L 199.1875 97.636719 L 198.94727 89.957031 L 199.2832 73.253906 z M 260.00391 73.349609 L 250.25977 73.396484 L 250.5 90.4375 L 250.25977 97.636719 C 253.45977 97.764719 255.93922 97.830078 257.69922 97.830078 C 261.66722 97.830078 264.65978 97.253562 266.67578 96.101562 C 268.69178 94.949563 269.69922 93.156609 269.69922 90.724609 C 269.69922 89.220609 269.28317 88.021 268.45117 87.125 C 267.65117 86.197 266.40303 85.525375 264.70703 85.109375 C 265.95503 84.565375 266.91589 83.813516 267.58789 82.853516 C 268.25989 81.893516 268.5957 80.774141 268.5957 79.494141 C 268.5957 77.510141 267.82702 75.989594 266.29102 74.933594 C 264.78702 73.877594 262.69191 73.349609 260.00391 73.349609 z M 203.84375 73.396484 L 203.50781 78.005859 L 203.89258 78.486328 L 208.88281 78.150391 L 210.27539 78.150391 L 210.37109 90.4375 L 210.13086 97.636719 L 216.13086 97.636719 L 215.93945 89.861328 L 216.08398 78.150391 L 217.47656 78.150391 L 222.37109 78.486328 L 222.70703 73.876953 L 222.37109 73.396484 L 203.84375 73.396484 z M 230.67578 73.396484 L 222.17969 97.636719 L 228.08398 97.636719 L 228.80273 93.796875 L 229.13867 92.789062 L 233.45898 92.693359 L 238.35547 92.742188 L 238.78711 94.132812 L 239.45898 97.636719 L 245.55469 97.636719 L 237.82812 73.396484 L 230.67578 73.396484 z M 275.07617 73.396484 L 275.31641 90.4375 L 275.07617 97.636719 L 281.12305 97.636719 L 280.88281 89.861328 L 281.21875 73.396484 L 275.07617 73.396484 z M 288.27539 73.396484 L 288.56445 90.4375 L 288.27539 97.636719 L 302.53125 97.636719 L 302.91602 93.125 L 302.58008 92.693359 L 294.17969 92.693359 L 294.08398 89.861328 L 294.41992 73.396484 L 288.27539 73.396484 z M 307.0918 73.396484 L 307.33203 90.4375 L 307.0918 97.636719 L 313.13867 97.636719 L 312.89844 89.861328 L 313.23633 73.396484 L 307.0918 73.396484 z M 352.83594 73.396484 L 344.33984 97.636719 L 350.24414 97.636719 L 350.96289 93.796875 L 351.29883 92.789062 L 355.61914 92.693359 L 360.51562 92.742188 L 360.94727 94.132812 L 361.61914 97.636719 L 367.71484 97.636719 L 359.98828 73.396484 L 352.83594 73.396484 z M 399.53906 73.396484 L 399.7793 90.4375 L 399.53906 97.636719 L 416.14648 97.636719 L 416.58008 93.125 L 416.19531 92.742188 L 409.66797 92.933594 L 405.44336 92.933594 L 405.34766 89.861328 L 405.39453 87.75 L 409.37891 87.75 L 413.93945 87.892578 L 414.32422 83.333984 L 413.98633 82.902344 L 409.81055 83.044922 L 405.49219 82.998047 L 405.58789 78.101562 L 410.09961 78.101562 L 416.33984 78.341797 L 416.72266 73.876953 L 416.38672 73.396484 L 399.53906 73.396484 z M 256.16406 77.669922 L 257.65234 77.669922 C 259.38034 77.669922 260.57995 77.862094 261.25195 78.246094 C 261.95595 78.630094 262.30664 79.316594 262.30664 80.308594 C 262.30664 81.204594 262.08277 81.909875 261.63477 82.421875 C 261.18677 82.901875 260.50027 83.252563 259.57227 83.476562 L 256.06836 83.380859 L 256.16406 77.669922 z M 160.5 77.910156 C 161.908 77.910156 163.0125 78.165734 163.8125 78.677734 C 164.6125 79.189734 165.20389 80.053531 165.58789 81.269531 C 165.97189 82.453531 166.16406 84.100891 166.16406 86.212891 C 166.16406 88.868891 165.73119 90.72525 164.86719 91.78125 C 164.03519 92.83725 162.6117 93.365234 160.5957 93.365234 C 159.2197 93.365234 158.1152 93.109656 157.2832 92.597656 C 156.4832 92.085656 155.89181 91.236734 155.50781 90.052734 C 155.15581 88.836734 154.98047 87.172547 154.98047 85.060547 C 154.98047 82.436547 155.39652 80.597016 156.22852 79.541016 C 157.09252 78.453016 158.516 77.910156 160.5 77.910156 z M 330.66016 78.052734 C 332.70816 78.052734 334.19505 78.677781 335.12305 79.925781 C 336.05105 81.141781 336.51562 83.173484 336.51562 86.021484 C 336.51563 90.885484 334.59586 93.318359 330.75586 93.318359 C 330.21186 93.318359 329.54023 93.284703 328.74023 93.220703 C 327.94023 93.156703 327.15472 93.076469 326.38672 92.980469 L 326.29102 89.861328 L 326.53125 78.246094 C 327.77925 78.118094 329.15616 78.052734 330.66016 78.052734 z M 382.5957 78.052734 C 384.6437 78.052734 386.13059 78.677781 387.05859 79.925781 C 387.98659 81.141781 388.45117 83.173484 388.45117 86.021484 C 388.45117 90.885484 386.53141 93.318359 382.69141 93.318359 C 382.14741 93.318359 381.47578 93.284703 380.67578 93.220703 C 379.87578 93.156703 379.09222 93.076469 378.32422 92.980469 L 378.22656 89.861328 L 378.4668 78.246094 C 379.7148 78.118094 381.0917 78.052734 382.5957 78.052734 z M 233.93945 78.917969 L 234.32422 78.917969 L 237.06055 88.181641 L 233.84375 88.228516 L 230.72266 88.181641 L 233.93945 78.917969 z M 356.09961 78.917969 L 356.48242 78.917969 L 359.21875 88.181641 L 356.00391 88.228516 L 352.88281 88.181641 L 356.09961 78.917969 z M 260.19531 87.556641 C 261.31531 87.812641 262.14741 88.165281 262.69141 88.613281 C 263.23541 89.061281 263.50781 89.6695 263.50781 90.4375 C 263.50781 91.4935 263.09177 92.293891 262.25977 92.837891 C 261.45977 93.349891 260.29186 93.605469 258.75586 93.605469 C 257.98786 93.605469 257.09236 93.556937 256.06836 93.460938 L 255.9707 89.861328 L 256.01953 87.654297 L 260.19531 87.556641 z "
       transform="matrix(0.26458333,0,0,0.26458333,13.229168,2.5894489)" />
  </g>
</svg>
